<svg width="73" height="72" viewBox="0 0 73 72" fill="none" xmlns="http://www.w3.org/2000/svg">
<rect x="0.333252" width="72" height="72" rx="36" fill="#064E3B"/>
<path d="M30.3333 26L27.3333 30V44C27.3333 44.5304 27.544 45.0391 27.919 45.4142C28.2941 45.7893 28.8028 46 29.3333 46H43.3333C43.8637 46 44.3724 45.7893 44.7475 45.4142C45.1225 45.0391 45.3333 44.5304 45.3333 44V30L42.3333 26H30.3333Z" stroke="#FCFCFC" stroke-width="2" stroke-linecap="round" stroke-linejoin="round"/>
<path d="M27.3333 30H45.3333" stroke="#FCFCFC" stroke-width="2" stroke-linecap="round" stroke-linejoin="round"/>
<path d="M40.3333 34C40.3333 35.0609 39.9118 36.0783 39.1617 36.8284C38.4115 37.5786 37.3941 38 36.3333 38C35.2724 38 34.255 37.5786 33.5048 36.8284C32.7547 36.0783 32.3333 35.0609 32.3333 34" stroke="#FCFCFC" stroke-width="2" stroke-linecap="round" stroke-linejoin="round"/>
</svg>
