<svg width="73" height="72" viewBox="0 0 73 72" fill="none" xmlns="http://www.w3.org/2000/svg">
<rect x="0.666626" width="72" height="72" rx="36" fill="#064E3B"/>
<path d="M36.6616 26.3407L42.3216 32.0007C43.441 33.1193 44.2034 34.5448 44.5125 36.0968C44.8216 37.6487 44.6635 39.2575 44.0582 40.7197C43.4528 42.1818 42.4274 43.4315 41.1117 44.3108C39.796 45.1901 38.2491 45.6594 36.6666 45.6594C35.0842 45.6594 33.5372 45.1901 32.2215 44.3108C30.9058 43.4315 29.8804 42.1818 29.2751 40.7197C28.6697 39.2575 28.5116 37.6487 28.8207 36.0968C29.1298 34.5448 29.8923 33.1193 31.0116 32.0007L36.6616 26.3407Z" stroke="#FCFCFC" stroke-width="2" stroke-linecap="round" stroke-linejoin="round"/>
</svg>
